<svg preserveAspectRatio="none" width="100%" height="100%" overflow="visible" style="display: block;" viewBox="0 0 16.672 10.536" fill="none" xmlns="http://www.w3.org/2000/svg">
<g id="Group">
<path id="Vector" d="M14.1712 1.50514C14.1712 0.677314 13.4209 0 12.504 0H10.0032V1.50514H12.504V3.49946L9.60305 6.77314H6.66879V3.01029H3.33439C1.49214 3.01029 0 4.35739 0 6.02057V8.27829H1.6672C1.6672 9.52755 2.78422 10.536 4.16799 10.536C5.55176 10.536 6.66879 9.52755 6.66879 8.27829H10.4033L14.1712 4.02626V1.50514ZM4.16799 9.03086C3.70951 9.03086 3.33439 8.6922 3.33439 8.27829H5.00159C5.00159 8.6922 4.62647 9.03086 4.16799 9.03086Z" fill="var(--fill-0, black)"/>
<path id="Vector_2" d="M6.66878 0.75255H2.50079V2.25769H6.66878V0.75255Z" fill="var(--fill-0, black)"/>
<path id="Vector_3" d="M14.1712 6.02055C12.7874 6.02055 11.6704 7.029 11.6704 8.27826C11.6704 9.52753 12.7874 10.536 14.1712 10.536C15.5549 10.536 16.6719 9.52753 16.6719 8.27826C16.6719 7.029 15.5549 6.02055 14.1712 6.02055ZM14.1712 9.03084C13.7127 9.03084 13.3376 8.69218 13.3376 8.27826C13.3376 7.86435 13.7127 7.52569 14.1712 7.52569C14.6296 7.52569 15.0047 7.86435 15.0047 8.27826C15.0047 8.69218 14.6296 9.03084 14.1712 9.03084Z" fill="var(--fill-0, black)"/>
</g>
</svg>
